<svg width="73" height="73" viewBox="0 0 73 73" fill="none" xmlns="http://www.w3.org/2000/svg">
<g clip-path="url(#clip0_914_29)">
<path d="M23.2865 0.198242H31.0205V3.43224H26.5205V6.66624H31.0205V9.90024H23.2865V0.198242ZM32.5655 0.198242H40.3025V3.01224H35.8025V3.57324H40.3025V10.0412H32.5655V7.08924H37.0655V6.52524H32.5655V0.198242ZM41.8505 0.198242H49.5815V3.01224H45.0815V3.57324H49.5815V10.0412H41.8505V7.08924H46.3505V6.52524H41.8505V0.198242Z" fill="#2E2E2E"/>
<path fill-rule="evenodd" clip-rule="evenodd" d="M36.7535 72.1982L15.9215 66.4142L9.78052 14.3492H63.7805L57.6425 66.4082L36.7535 72.1982ZM21.9215 37.9172L22.4945 44.3012H44.6255L43.8845 52.5812L36.7625 54.5072H36.7565L29.6465 52.5872L29.1905 47.4962H22.7795L23.6735 57.5222L36.7535 61.1522L49.8545 57.5222L51.4505 39.6302L51.6065 37.9172L52.7585 24.9902H20.7725L21.3545 31.3772H45.7625L45.1805 37.9172H21.9215Z" fill="#2E2E2E"/>
</g>
<defs>
<clipPath id="clip0_914_29">
<rect width="72" height="72" fill="white" transform="translate(0.780518 0.198242)"/>
</clipPath>
</defs>
</svg>
