<svg width="73" height="73" viewBox="0 0 73 73" fill="none" xmlns="http://www.w3.org/2000/svg">
<g clip-path="url(#clip0_914_32)">
<path fill-rule="evenodd" clip-rule="evenodd" d="M72.561 0.265259H0.561035V72.2653H72.561V0.265259ZM38.961 38.6653C38.961 36.1192 39.9725 33.6774 41.7728 31.877C43.5732 30.0767 46.015 29.0653 48.561 29.0653H54.1626C59.0202 29.0653 62.961 33.0013 62.961 37.8637V38.6653H58.161V37.8637C58.161 37.3386 58.0576 36.8186 57.8567 36.3335C57.6557 35.8484 57.3612 35.4076 56.9899 35.0364C56.6186 34.6651 56.1779 34.3706 55.6928 34.1696C55.2076 33.9687 54.6877 33.8653 54.1626 33.8653H48.561C47.288 33.8653 46.0671 34.371 45.1669 35.2711C44.2668 36.1713 43.761 37.3922 43.761 38.6653C43.761 39.9383 44.2668 41.1592 45.1669 42.0594C46.0671 42.9595 47.288 43.4653 48.561 43.4653H53.361C55.9071 43.4653 58.3489 44.4767 60.1493 46.277C61.9496 48.0774 62.961 50.5192 62.961 53.0653C62.961 55.6113 61.9496 58.0531 60.1493 59.8535C58.3489 61.6538 55.9071 62.6653 53.361 62.6653H48.561C46.015 62.6653 43.5732 61.6538 41.7728 59.8535C39.9725 58.0531 38.961 55.6113 38.961 53.0653H43.761C43.761 54.3383 44.2668 55.5592 45.1669 56.4594C46.0671 57.3595 47.288 57.8653 48.561 57.8653H53.361C54.6341 57.8653 55.855 57.3595 56.7551 56.4594C57.6553 55.5592 58.161 54.3383 58.161 53.0653C58.161 51.7922 57.6553 50.5713 56.7551 49.6712C55.855 48.771 54.6341 48.2653 53.361 48.2653H48.561C46.015 48.2653 43.5732 47.2538 41.7728 45.4535C39.9725 43.6531 38.961 41.2113 38.961 38.6653ZM29.361 29.0653V53.0653C29.361 54.3383 28.8553 55.5592 27.9551 56.4594C27.055 57.3595 25.8341 57.8653 24.561 57.8653C23.288 57.8653 22.0671 57.3595 21.1669 56.4594C20.2668 55.5592 19.761 54.3383 19.761 53.0653H14.961C14.961 55.6113 15.9725 58.0531 17.7728 59.8535C19.5732 61.6538 22.015 62.6653 24.561 62.6653C27.1071 62.6653 29.5489 61.6538 31.3493 59.8535C33.1496 58.0531 34.161 55.6113 34.161 53.0653V29.0653H29.361Z" fill="#2E2E2E"/>
</g>
<defs>
<clipPath id="clip0_914_32">
<rect width="72" height="72" fill="white" transform="translate(0.561035 0.265259)"/>
</clipPath>
</defs>
</svg>
