<svg width="73" height="73" viewBox="0 0 73 73" fill="none" xmlns="http://www.w3.org/2000/svg">
<g clip-path="url(#clip0_914_25)">
<path d="M43.19 36.2103C43.19 37.9888 42.4837 39.6946 41.2263 40.9525C39.969 42.2104 38.2636 42.9175 36.485 42.9183C34.7059 42.9183 32.9997 42.2115 31.7417 40.9535C30.4837 39.6955 29.777 37.9893 29.777 36.2103C29.777 34.4317 30.4833 32.726 31.7407 31.4681C32.998 30.2101 34.7034 29.5031 36.482 29.5023C38.2611 29.5023 39.9673 30.209 41.2253 31.467C42.4833 32.725 43.19 34.4312 43.19 36.2103ZM51.134 4.14026C47.096 4.14026 41.813 7.02026 36.47 12.0063C31.13 7.04726 25.844 4.20026 21.809 4.20026C20.579 4.20026 19.46 4.47926 18.491 5.03426C14.366 7.41326 13.442 14.8263 15.572 24.1293C6.44 26.9493 0.5 31.4583 0.5 36.2103C0.5 40.9803 6.47 45.5013 15.629 48.3003C13.517 57.6393 14.459 65.0643 18.593 67.4403C19.553 68.0013 20.663 68.2653 21.899 68.2653C25.934 68.2653 31.22 65.3853 36.563 60.3933C41.903 65.3553 47.189 68.2023 51.224 68.2023C52.454 68.2023 53.573 67.9323 54.542 67.3773C58.664 65.0013 59.591 57.5883 57.461 48.2823C66.56 45.4863 72.5 40.9683 72.5 36.2103C72.5 31.4403 66.53 26.9193 57.371 24.1143C59.483 14.7843 58.541 7.35326 54.407 4.97426C53.4076 4.41224 52.2804 4.12451 51.134 4.14026ZM51.119 7.41026V7.42826C51.794 7.42826 52.337 7.56026 52.793 7.80926C54.791 8.95526 55.658 13.3143 54.983 18.9213C54.821 20.3013 54.557 21.7563 54.233 23.2413C51.1654 22.499 48.0514 21.9638 44.912 21.6393C43.0424 19.0593 41.0029 16.6069 38.807 14.2983C43.583 9.85826 48.068 7.42226 51.122 7.41326L51.119 7.41026ZM21.809 7.47026C24.845 7.47026 29.351 9.89426 34.139 14.3103C32.081 16.4703 30.029 18.9213 28.079 21.6363C24.9323 21.957 21.8118 22.4963 18.74 23.2503C18.4179 21.8433 18.1636 20.4216 17.978 18.9903C17.288 13.3863 18.14 9.03026 20.12 7.86926C20.69 7.59926 21.32 7.48526 21.809 7.47026ZM36.455 16.6203C37.82 18.0243 39.185 19.5963 40.535 21.3123C39.215 21.2523 37.865 21.2103 36.5 21.2103C35.12 21.2103 33.755 21.2403 32.42 21.3123C33.74 19.5963 35.105 18.0273 36.455 16.6203ZM36.5 24.4983C38.72 24.4983 40.931 24.6003 43.106 24.7773C44.324 26.5233 45.512 28.3863 46.655 30.3573C47.771 32.2773 48.785 34.2273 49.709 36.1953C48.785 38.1603 47.771 40.1253 46.67 42.0453C45.53 44.0253 44.351 45.9093 43.13 47.6553C38.7266 48.0406 34.2982 48.0456 29.894 47.6703C28.6345 45.86 27.4505 43.9984 26.345 42.0903C25.229 40.1703 24.215 38.2203 23.291 36.2523C24.218 34.2549 25.232 32.299 26.33 30.3903C27.47 28.4103 28.649 26.5323 29.87 24.7863C32.0746 24.5914 34.2868 24.4933 36.5 24.4923V24.4983ZM25.595 25.2603C24.875 26.3913 24.155 27.5493 23.483 28.7403C22.808 29.9103 22.178 31.0863 21.578 32.2623C20.783 30.2943 20.108 28.3323 19.55 26.4213C21.47 25.9713 23.495 25.5693 25.595 25.2603ZM47.375 25.2603C49.46 25.5693 51.47 25.9503 53.393 26.4213C52.853 28.3173 52.178 30.2673 51.413 32.2203C50.1888 29.8323 48.842 27.5092 47.378 25.2603H47.375ZM56.564 27.2853C58.016 27.7353 59.396 28.2363 60.689 28.7793C65.885 30.9993 69.245 33.9033 69.245 36.2073C69.23 38.5113 65.87 41.4273 60.674 43.6323C59.414 44.1723 58.034 44.6583 56.609 45.1113C55.7079 42.0616 54.6055 39.075 53.309 36.1713C54.659 33.1203 55.739 30.1413 56.564 27.2793V27.2853ZM16.379 27.2973C17.213 30.1773 18.314 33.1683 19.679 36.2373C18.3919 39.1237 17.3033 42.0946 16.421 45.1293C14.969 44.6793 13.589 44.1753 12.311 43.6293C7.115 41.4183 3.755 38.5113 3.755 36.2073C3.755 33.9033 7.115 30.9813 12.311 28.7793C13.571 28.2393 14.951 27.7533 16.379 27.2973ZM51.413 40.1373C52.208 42.1083 52.883 44.0733 53.441 45.9813C51.521 46.4523 49.493 46.8513 47.393 47.1513C48.8552 44.8849 50.195 42.5437 51.413 40.1373ZM21.578 40.1973C22.178 41.3733 22.808 42.5463 23.498 43.7223C24.188 44.8923 24.893 46.0383 25.613 47.1513C23.5902 46.8586 21.582 46.4722 19.595 45.9933C20.135 44.1033 20.813 42.1473 21.575 40.1943L21.578 40.1973ZM54.26 49.1583C54.596 50.6373 54.86 52.0623 55.022 53.4273C55.712 59.0313 54.86 63.3873 52.88 64.5513C52.439 64.8213 51.866 64.9353 51.191 64.9353C48.155 64.9353 43.649 62.5143 38.861 58.0953C40.919 55.9353 42.971 53.4873 44.921 50.7753C48.242 50.4213 51.383 49.8783 54.26 49.1583ZM18.77 49.1883C21.65 49.8903 24.788 50.4333 28.091 50.7843C30.071 53.4993 32.126 55.9653 34.196 58.1223C29.411 62.5713 24.92 65.0073 21.866 65.0073C21.2891 65.0118 20.7197 64.8759 20.207 64.6113C18.209 63.4713 17.342 59.1093 18.017 53.5023C18.179 52.1223 18.446 50.6703 18.77 49.1883ZM32.45 51.1083C33.77 51.1683 35.12 51.2103 36.485 51.2103C37.865 51.2103 39.23 51.1803 40.565 51.1083C39.245 52.8243 37.88 54.3933 36.53 55.8033C35.165 54.3933 33.8 52.8243 32.45 51.1083Z" fill="#2E2E2E"/>
</g>
<defs>
<clipPath id="clip0_914_25">
<rect width="72" height="72" fill="white" transform="translate(0.5 0.198242)"/>
</clipPath>
</defs>
</svg>
