<svg width="249" height="497" viewBox="0 0 249 497" fill="none" xmlns="http://www.w3.org/2000/svg">
<path d="M0.678711 20.7051V19.288C0.678711 7.95104 8.47284 0.865479 19.8097 0.865479C31.1467 0.865479 38.2322 8.65963 38.2322 20.7051C38.2322 32.042 30.4381 39.1276 19.1012 39.1276C7.76428 39.1276 0.678711 32.042 0.678711 20.7051ZM38.2322 20.7051V19.288C38.2322 7.95104 46.0264 0.865479 57.3633 0.865479C68.7002 0.865479 75.7857 8.65963 75.7857 20.7051C75.7857 32.042 67.9916 39.1276 56.6547 39.1276C45.3178 39.1276 38.2322 32.042 38.2322 20.7051ZM38.2322 57.5501V58.9672C38.2322 70.304 30.4381 77.3896 19.1012 77.3896C7.76428 77.3896 0.678711 69.5955 0.678711 57.5501C0.678711 46.2131 8.47284 39.1276 19.8097 39.1276C31.1467 39.1276 38.2322 46.2131 38.2322 57.5501ZM75.7857 57.5501V58.9672C75.7857 70.304 67.9916 77.3896 56.6547 77.3896C45.3178 77.3896 38.2322 69.5955 38.2322 57.5501C38.2322 46.2131 46.0264 39.1276 57.3633 39.1276C68.7002 39.1276 75.7857 46.2131 75.7857 57.5501ZM38.2322 95.8121V97.2292C38.2322 108.566 30.4381 115.652 19.1012 115.652C7.76428 115.652 0.678711 107.858 0.678711 95.8121C0.678711 84.4752 8.47284 77.3896 19.8097 77.3896C31.1467 77.3896 38.2322 84.4752 38.2322 95.8121ZM75.7857 95.8121V97.2292C75.7857 108.566 67.9916 115.652 56.6547 115.652C45.3178 115.652 38.2322 107.858 38.2322 95.8121C38.2322 84.4752 46.0264 77.3896 57.3633 77.3896C68.7002 77.3896 75.7857 84.4752 75.7857 95.8121ZM38.2322 134.074V134.783C38.2322 146.12 30.4381 153.205 19.1012 153.205C7.76428 153.205 0.678711 145.411 0.678711 134.074C0.678711 122.737 7.76428 115.652 19.8097 115.652C31.1467 115.652 38.2322 122.737 38.2322 134.074ZM75.7857 134.074V134.783C75.7857 146.12 67.9916 153.205 56.6547 153.205C45.3178 153.205 38.2322 145.411 38.2322 134.074C38.2322 122.737 45.3178 115.652 57.3633 115.652C68.7002 115.652 75.7857 122.737 75.7857 134.074ZM38.2322 171.628V173.045C38.2322 184.382 30.4381 191.467 19.1012 191.467C7.76428 191.467 0.678711 183.673 0.678711 171.628C0.678711 160.291 8.47284 153.205 19.8097 153.205C31.1467 153.205 38.2322 160.291 38.2322 171.628ZM75.7857 171.628V173.045C75.7857 184.382 67.9916 191.467 56.6547 191.467C45.3178 191.467 38.2322 183.673 38.2322 171.628C38.2322 160.291 46.0264 153.205 57.3633 153.205C68.7002 153.205 75.7857 160.291 75.7857 171.628ZM38.2322 209.89V211.307C38.2322 222.644 30.4381 229.729 19.1012 229.729C7.76428 229.729 0.678711 221.935 0.678711 209.89C0.678711 198.553 8.47284 191.467 19.8097 191.467C31.1467 191.467 38.2322 198.553 38.2322 209.89ZM75.7857 209.89V211.307C75.7857 222.644 67.9916 229.729 56.6547 229.729C45.3178 229.729 38.2322 221.935 38.2322 209.89C38.2322 198.553 46.0264 191.467 57.3633 191.467C68.7002 191.467 75.7857 198.553 75.7857 209.89ZM38.2322 248.152V249.569C38.2322 260.906 30.4381 267.991 19.1012 267.991C7.76428 267.991 0.678711 260.197 0.678711 248.152C0.678711 236.815 8.47284 229.729 19.8097 229.729C31.1467 229.729 38.2322 236.815 38.2322 248.152ZM76.4943 248.86C76.4943 260.197 69.4087 267.991 57.3633 267.991C46.0264 267.991 38.2322 260.906 38.2322 248.86C38.2322 237.523 45.3178 229.729 57.3633 229.729C68.7002 229.729 76.4943 237.523 76.4943 248.86ZM114.756 248.86C114.756 260.197 107.671 267.991 95.6253 267.991C84.2884 267.991 76.4943 260.906 76.4943 248.86C76.4943 237.523 83.5799 229.729 95.6253 229.729C106.962 229.729 114.756 237.523 114.756 248.86ZM153.018 248.86C153.018 260.197 145.933 267.991 133.887 267.991C122.55 267.991 114.756 260.906 114.756 248.86C114.756 237.523 121.842 229.729 133.887 229.729C145.224 229.729 153.018 237.523 153.018 248.86ZM191.281 248.86C191.281 237.523 198.366 229.729 210.412 229.729C221.748 229.729 229.543 237.523 229.543 248.86C229.543 260.197 222.457 267.991 210.412 267.991C199.075 267.991 191.281 260.906 191.281 248.86ZM153.018 248.86C153.018 237.523 160.104 229.729 172.149 229.729C183.486 229.729 191.281 237.523 191.281 248.86C191.281 260.197 184.195 267.991 172.149 267.991C160.813 267.991 153.018 260.906 153.018 248.86ZM76.4943 287.122C76.4943 298.459 69.4087 306.253 57.3633 306.253C46.0264 306.253 38.2322 299.168 38.2322 287.122C38.2322 275.786 45.3178 267.991 57.3633 267.991C68.7002 267.991 76.4943 275.786 76.4943 287.122ZM38.2322 286.414V287.831C38.2322 299.168 30.4381 306.253 19.1012 306.253C7.76428 306.253 0.678711 298.459 0.678711 286.414C0.678711 275.077 8.47284 267.991 19.8097 267.991C31.1467 267.991 38.2322 275.077 38.2322 286.414ZM114.756 287.122C114.756 298.459 107.671 306.253 95.6253 306.253C84.2884 306.253 76.4943 299.168 76.4943 287.122C76.4943 275.786 83.5799 267.991 95.6253 267.991C106.962 267.991 114.756 275.786 114.756 287.122ZM153.018 287.122C153.018 298.459 145.933 306.253 133.887 306.253C122.55 306.253 114.756 299.168 114.756 287.122C114.756 275.786 121.842 267.991 133.887 267.991C145.224 267.991 153.018 275.786 153.018 287.122ZM191.281 287.122C191.281 298.459 184.195 306.253 172.149 306.253C160.813 306.253 153.018 299.168 153.018 287.122C153.018 275.786 160.104 267.991 172.149 267.991C183.486 267.991 191.281 275.786 191.281 287.122ZM229.543 287.122C229.543 298.459 222.457 306.253 210.412 306.253C199.075 306.253 191.281 299.168 191.281 287.122C191.281 275.786 198.366 267.991 210.412 267.991C221.748 267.991 229.543 275.786 229.543 287.122ZM38.2322 324.676C38.2322 313.339 46.0264 306.253 57.3633 306.253C68.7002 306.253 75.7857 313.339 75.7857 324.676V326.093C75.7857 337.43 67.9916 344.516 56.6547 344.516C45.3178 344.516 38.2322 336.721 38.2322 324.676ZM19.1012 344.516C7.76428 344.516 0.678711 336.721 0.678711 324.676C0.678711 313.339 8.47284 306.253 19.8097 306.253C31.1467 306.253 38.2322 313.339 38.2322 324.676V326.093C38.2322 337.43 30.4381 344.516 19.1012 344.516ZM38.2322 362.938C38.2322 351.601 45.3178 344.516 57.3633 344.516C68.7002 344.516 75.7857 351.601 75.7857 362.938V363.647C75.7857 374.984 67.9916 382.069 56.6547 382.069C45.3178 382.069 38.2322 374.275 38.2322 362.938ZM19.1012 382.069C7.76428 382.069 0.678711 374.275 0.678711 362.938C0.678711 351.601 7.76428 344.516 19.8097 344.516C31.1467 344.516 38.2322 351.601 38.2322 362.938V363.647C38.2322 374.984 30.4381 382.069 19.1012 382.069ZM38.2322 400.492C38.2322 389.155 46.0264 382.069 57.3633 382.069C68.7002 382.069 75.7857 389.155 75.7857 400.492V401.909C75.7857 413.246 67.9916 420.331 56.6547 420.331C45.3178 420.331 38.2322 412.537 38.2322 400.492ZM19.1012 420.331C7.76428 420.331 0.678711 412.537 0.678711 400.492C0.678711 389.155 8.47284 382.069 19.8097 382.069C31.1467 382.069 38.2322 389.155 38.2322 400.492V401.909C38.2322 413.246 30.4381 420.331 19.1012 420.331ZM38.2322 438.754C38.2322 427.417 46.0264 420.331 57.3633 420.331C68.7002 420.331 75.7857 427.417 75.7857 438.754V440.171C75.7857 451.508 67.9916 458.593 56.6547 458.593C45.3178 458.593 38.2322 450.799 38.2322 438.754ZM19.1012 458.593C7.76428 458.593 0.678711 450.799 0.678711 438.754C0.678711 427.417 8.47284 420.331 19.8097 420.331C31.1467 420.331 38.2322 427.417 38.2322 438.754V440.171C38.2322 451.508 30.4381 458.593 19.1012 458.593ZM38.2322 478.433V477.016C38.2322 465.679 46.0264 458.593 57.3633 458.593C68.7002 458.593 75.7857 466.387 75.7857 478.433C75.7857 489.77 67.9916 496.855 56.6547 496.855C45.3178 496.855 38.2322 489.77 38.2322 478.433ZM0.678711 478.433V477.016C0.678711 465.679 8.47284 458.593 19.8097 458.593C31.1467 458.593 38.2322 466.387 38.2322 478.433C38.2322 489.77 30.4381 496.855 19.1012 496.855C7.76428 496.855 0.678711 489.77 0.678711 478.433Z" fill="#C6C6C6"/>
</svg>
