<svg width="49" height="49" viewBox="0 0 49 49" fill="none" xmlns="http://www.w3.org/2000/svg">
<g clip-path="url(#clip0_914_4)">
<path d="M14.0976 4.7483C15.5995 5.25708 17.0283 5.9604 18.3476 6.8403C20.2107 6.36412 22.1265 6.12489 24.0496 6.1283C26.0356 6.1283 27.9516 6.3763 29.7476 6.8383C31.0663 5.95925 32.4944 5.25661 33.9956 4.7483C35.3896 4.2743 37.3756 3.5063 38.5556 4.8123C39.3556 5.7003 39.5556 7.1883 39.6976 8.3243C39.8576 9.5923 39.8956 11.2443 39.4756 12.8843C41.0816 14.9583 42.0496 17.4323 42.0496 20.1283C42.0496 24.2123 39.8376 27.7583 36.5636 30.2143C34.9879 31.3814 33.2404 32.2963 31.3836 32.9263C31.8116 33.9063 32.0496 34.9903 32.0496 36.1283V42.1283C32.0496 42.6587 31.8388 43.1674 31.4638 43.5425C31.0887 43.9176 30.58 44.1283 30.0496 44.1283H18.0496C17.5191 44.1283 17.0104 43.9176 16.6353 43.5425C16.2603 43.1674 16.0496 42.6587 16.0496 42.1283V40.1463C14.1396 40.3803 12.5376 40.1723 11.1756 39.5943C9.75156 38.9903 8.75956 38.0543 8.01356 37.1583C7.30556 36.3103 6.53356 34.3983 5.41756 34.0263C5.16831 33.9433 4.93785 33.812 4.73934 33.64C4.54082 33.4679 4.37814 33.2584 4.26058 33.0235C4.02316 32.549 3.98394 31.9997 4.15156 31.4963C4.31918 30.9929 4.6799 30.5767 5.15436 30.3393C5.62883 30.1019 6.17818 30.0627 6.68156 30.2303C8.01356 30.6743 8.88156 31.6343 9.47556 32.4063C10.4356 33.6463 11.2156 35.2663 12.7356 35.9123C13.3616 36.1783 14.2796 36.3523 15.7156 36.1563L16.0496 36.0883C16.0534 34.9999 16.28 33.9238 16.7156 32.9263C14.8587 32.2963 13.1112 31.3814 11.5356 30.2143C8.26156 27.7583 6.04956 24.2143 6.04956 20.1283C6.04956 17.4363 7.01556 14.9643 8.61756 12.8923C8.19756 11.2523 8.23356 9.5963 8.39356 8.3263L8.40356 8.2503C8.54956 7.0863 8.71956 5.7163 9.53556 4.8123C10.7156 3.5063 12.7036 4.2763 14.0956 4.7503L14.0976 4.7483Z" fill="#2E2E2E"/>
</g>
<defs>
<clipPath id="clip0_914_4">
<rect width="48" height="48" fill="white" transform="translate(0.0495605 0.128418)"/>
</clipPath>
</defs>
</svg>
