<svg width="49" height="49" viewBox="0 0 49 49" fill="none" xmlns="http://www.w3.org/2000/svg">
<path d="M14.1047 10.1294C14.1041 11.1903 13.6822 12.2075 12.9317 12.9573C12.1812 13.7071 11.1635 14.128 10.1027 14.1274C9.0418 14.1269 8.0246 13.705 7.27483 12.9545C6.52506 12.2039 6.10414 11.1863 6.10467 10.1254C6.1052 9.06458 6.52713 8.04737 7.27766 7.2976C8.02818 6.54783 9.0458 6.12691 10.1067 6.12744C11.1675 6.12797 12.1847 6.54991 12.9345 7.30043C13.6843 8.05095 14.1052 9.06858 14.1047 10.1294ZM14.2247 17.0894H6.22467V42.1294H14.2247V17.0894ZM26.8647 17.0894H18.9047V42.1294H26.7847V28.9894C26.7847 21.6694 36.3247 20.9894 36.3247 28.9894V42.1294H44.2247V26.2694C44.2247 13.9294 30.1047 14.3894 26.7847 20.4494L26.8647 17.0894Z" fill="#2E2E2E"/>
</svg>
